name C:\Users\tom_v\MusculoskeletalSpecialization\ResultsSprinting\Case_6\motion.mot
datacolumns 32
datarows 16
range 0.25158494 0.32706042
endheader 
time	pelvis_tilt	pelvis_list	pelvis_rotation	pelvis_tx	pelvis_ty	pelvis_tz	hip_flexion_r	hip_adduction_r	hip_rotation_r	knee_angle_r	ankle_angle_r	subtalar_angle_r	mtp_angle_r	hip_flexion_l	hip_adduction_l	hip_rotation_l	knee_angle_l	ankle_angle_l	subtalar_angle_l	mtp_angle_l	lumbar_extension	lumbar_bending	lumbar_rotation	arm_flex_r	arm_add_r	arm_rot_r	elbow_flex_r	arm_flex_l	arm_add_l	arm_rot_l	elbow_flex_l	
          0.25158494	         -8.64919318	          2.15793079	          1.26698355	          0.83777785	          0.94284964	         -0.00204345	          3.48073645	          1.94749430	          6.07304472	        -45.88344731	         -4.19173401	         13.39627673	         16.33607301	         38.52634040	          8.55573168	          6.74436695	        -31.10228372	         11.44310914	          5.38027781	          0.64801396	         -8.21693834	         -4.38262072	          3.09325904	         -2.56254886	         -6.83769851	          3.96169041	         46.32412475	         17.51052599	         -0.06857673	         -0.61908400	          6.67461276	
          0.25661664	         -8.61394899	          2.13805980	          1.16654779	          0.85497690	          0.94065053	         -0.00214060	          4.52792561	          1.91970387	          5.97418715	        -47.61276493	         -3.16497971	         13.13944000	         15.32213634	         37.84922378	          8.69314759	          6.97647576	        -31.89422895	         11.81171956	          4.97717130	          0.60820915	         -8.16336222	         -4.36819423	          2.94290700	         -2.01174534	         -6.58486855	          3.71130248	         44.86663658	         16.88863861	         -0.28958742	          0.25360733	          7.85117416	
          0.26164834	         -8.58102320	          2.11851051	          1.06662945	          0.87204938	          0.93845687	         -0.00223027	          5.67015789	          1.89903706	          5.88078145	        -49.34278843	         -2.09059285	         12.83325682	         14.36906299	         37.20673733	          8.84230329	          7.19309299	        -32.75078764	         12.40175527	          4.50914380	          0.62066166	         -8.12421450	         -4.34907115	          2.77424823	         -1.38961933	         -6.31481239	          3.44327271	         43.30225120	         16.23874716	         -0.53913789	          1.12361213	          9.14792921	
          0.26668004	         -8.55122713	          2.10881945	          0.96419192	          0.88896804	          0.93635200	         -0.00231779	          6.90323154	          1.87536094	          5.79745705	        -51.05437745	         -0.98566913	         12.48388476	         13.47397934	         36.62102474	          9.02158459	          7.40750285	        -33.71213937	         13.28082424	          4.03788167	          0.78819527	         -8.10234906	         -4.33353193	          2.59084679	         -0.68630082	         -6.02574959	          3.15507472	         41.61470802	         15.56686475	         -0.81717347	          1.98329656	         10.56273230	
          0.27171174	         -8.52478034	          2.10552896	          0.85478173	          0.90573418	          0.93440464	         -0.00240293	          8.21543900	          1.85142840	          5.72405541	        -52.71580418	          0.13409779	         12.09631691	         12.63328871	         36.06542737	          9.22476481	          7.62983563	        -34.72302035	         14.31887218	          3.57368793	          1.18536434	         -8.09681611	         -4.31474015	          2.39800587	          0.10237366	         -5.71884921	          2.84537537	         39.79381930	         14.87214973	         -1.12194032	          2.82177017	         12.09544864	
          0.27674343	         -8.50207370	          2.10216192	          0.73731393	          0.92236595	          0.93266183	         -0.00247969	          9.59275387	          1.83360231	          5.65518613	        -54.29711529	          1.25908752	         11.67772246	         11.84400503	         35.49422421	          9.43203363	          7.85556703	        -35.69594309	         15.36386670	          3.11823516	          1.74560467	         -8.10450315	         -4.28446638	          2.19682568	          0.97593861	         -5.39460110	          2.51402798	         37.83596204	         14.15096562	         -1.45311801	          3.62716506	         13.74525883	
          0.28177513	         -8.48327560	          2.09415827	          0.61234956	          0.93888334	          0.93115309	         -0.00254131	         11.02173346	          1.82715412	          5.58617248	        -55.77623266	          2.38650141	         11.23445384	         11.10265791	         34.87310281	          9.62827040	          8.08163941	        -36.56871029	         16.33239909	          2.67093116	          2.43486777	         -8.12264410	         -4.23821640	          1.98773297	          1.92935819	         -5.05368312	          2.15943487	         35.74664465	         13.40220424	         -1.81008967	          4.38962086	         15.50651770	
          0.28680683	         -8.46845547	          2.07849252	          0.48142101	          0.95530204	          0.92989401	         -0.00258479	         12.49072598	          1.83513080	          5.51232941	        -57.13899115	          3.51605244	         10.77283068	         10.40635416	         34.18751560	          9.80333087	          8.30429148	        -37.31734871	         17.20794421	          2.24544774	          3.24192350	         -8.14939391	         -4.17341149	          1.77158473	          2.95380243	         -4.69816589	          1.77804053	         33.54094064	         12.62807022	         -2.19073270	          5.10189225	         17.36873562	
          0.29183853	         -8.45757609	          2.05274035	          0.34697596	          0.97163471	          0.92888969	         -0.00260996	         13.98986034	          1.86053391	          5.43073438	        -58.37828259	          4.64499157	         10.29910394	          9.75237914	         33.43437424	          9.94958977	          8.51823788	        -37.93542614	         17.97746164	          1.85308087	          4.14975416	         -8.18360398	         -4.08813623	          1.54898236	          4.03793548	         -4.33127165	          1.36556210	         31.24104301	         11.83263204	         -2.59187063	          5.75868185	         19.31845845	
          0.29687023	         -8.45054596	          2.01481942	          0.21174534	          0.98789376	          0.92813798	         -0.00261749	         15.50998403	          1.90631365	          5.33994740	        -59.49089797	          5.76924717	          9.81917979	          9.13796122	         32.61490731	         10.06086827	          8.71837004	        -38.42377703	         18.63497712	          1.50400573	          5.14305929	         -8.22429027	         -3.98093867	          1.32031189	          5.16871245	         -3.95701032	          0.91821702	         28.87385368	         11.02044055	         -3.00973908	          6.35604394	         21.34074709	
          0.30190193	         -8.44724025	          1.96323098	          0.07778204	          1.00409237	          0.92763238	         -0.00260820	         17.04189005	          1.97459879	          5.24029796	        -60.47464056	          6.88448842	          9.33940687	          8.56051396	         31.73113196	         10.13314180	          8.90180935	        -38.78514880	         19.17900855	          1.20227752	          6.21027492	         -8.27041846	         -3.85100287	          1.08647716	          6.33194377	         -3.58007033	          0.43338708	         26.46926065	         10.19599555	         -3.44003845	          6.89131259	         23.41976767	
          0.30693363	         -8.44754017	          1.89695208	         -0.05326100	          1.02024416	          0.92736394	         -0.00258297	         18.57655932	          2.06661504	          5.13222207	        -61.32750907	          7.98401790	          8.86515794	          8.01761474	         30.78449435	         10.16399138	          9.06812869	        -39.02211764	         19.61342523	          0.95115706	          7.34073113	         -8.32093060	         -3.69805425	          0.84855208	          7.51287091	         -3.20543882	         -0.08993978	         24.05864295	          9.36362153	         -3.87819514	          7.36306175	         25.53923610	
          0.31196533	         -8.45131696	          1.81535074	         -0.17984969	          1.03636327	          0.92732276	         -0.00254294	         20.10472413	          2.18311580	          5.01661064	        -62.04638631	          9.06094322	          8.40243429	          7.50699991	         29.77594083	         10.15172157	          9.21735592	        -39.13665853	         19.94397616	          0.75411153	          8.52484716	         -8.37474150	         -3.52218613	          0.60753124	          8.69661535	         -2.83805511	         -0.65101103	         21.67345644	          8.52744476	         -4.31951537	          7.77105421	         27.68258826	
          0.31699702	         -8.45839937	          1.71893181	         -0.30098282	          1.05246433	          0.92749855	         -0.00248905	         21.61720650	          2.32366515	          4.89523876	        -62.62803599	         10.10459979	          7.95651044	          7.02661498	         28.70601824	         10.09570657	          9.34875100	        -39.12992569	         20.17586626	          0.61420959	          9.75409925	         -8.43066394	         -3.32468872	          0.36461281	          9.86862655	         -2.48243176	         -1.24717089	         19.34382838	          7.69137259	         -4.75941686	          8.11625572	         29.83315788	
          0.32202872	         -8.46861893	          1.60863359	         -0.41602408	          1.06856186	          0.92788081	         -0.00242221	         23.10542780	          2.48706708	          4.76998517	        -63.07025244	         11.10629700	          7.53268330	          6.57428419	         27.57510663	          9.99611042	          9.46219838	        -39.00272632	         20.31341702	          0.53427725	         11.02074728	         -8.48743132	         -3.10725275	          0.12109589	         11.01513687	         -2.14252455	         -1.87381636	         17.09751172	          6.85914648	         -5.19343548	          8.40068406	         31.97434363	
          0.32706042	         -8.48178270	          1.48569425	         -0.52459764	          1.08466968	          0.92845863	         -0.00234347	         24.56137340	          2.67178584	          4.64321841	        -63.37172542	         12.05836675	          7.13530532	          6.14850982	         26.38429732	          9.85411212	          9.55770823	        -38.75686106	         20.35853816	          0.51457960	         12.31812003	         -8.54382066	         -2.87179080	         -0.12170930	         12.12358220	         -1.82155239	         -2.52466504	         14.95898427	          6.03437490	         -5.61733521	          8.62729387	         34.09000283	
